<svg xmlns="http://www.w3.org/2000/svg" width="256" height="256"><path fill-opacity=".016" d="M0 128.004v128.004l128.25-.254 128.25-.254.254-127.75L257.008 0H0v128.004m.485.496c0 70.4.119 99.053.265 63.672.146-35.38.146-92.98 0-128C.604 29.153.485 58.1.485 128.5" fill="#212121" fill-rule="evenodd"/><path fill-opacity=".231" d="M153 7.655c-31.452 9.077-60.944 32.204-74.473 58.398C74.194 74.441 69 89.962 69 94.518c0 2.214-.346 2.307-9.831 2.638-8.956.313-10.157.593-13.5 3.145-2.833 2.163-3.669 2.44-3.669 1.218 0-2.295 3.901-13.633 5.598-16.269 2.383-3.703-.045-2.586-7.782 3.578-16.071 12.803-27.237 30.241-31.936 49.871-6.707 28.023 5.057 60.737 29.082 80.878 27.973 23.448 65.77 34.034 109.37 30.629 27.668-2.16 49.011-8.794 67.716-21.046 15.465-10.131 27.535-25.158 33.061-41.16 3.046-8.821 3.769-25.982 1.477-35.076-2.227-8.834-6.641-17.512-13.119-25.791-4.682-5.983-5.47-7.608-5.489-11.31-.024-4.806-2.672-11.414-5.623-14.035-3.678-3.265-9.112-4.788-17.089-4.788-7.302 0-8.237-.257-14.71-4.039-17.522-10.24-26.808-19.054-32.992-31.318-3.727-7.39-6.529-18.181-6.529-25.143 0-6.378 2.675-17.283 5.964-24.312 1.67-3.568 2.915-6.599 2.768-6.736-.147-.137-4.092.854-8.767 2.203m14 102.723c0 .207.787.995 1.75 1.75 1.586 1.243 1.621 1.208.378-.378-1.307-1.666-2.128-2.195-2.128-1.372M178.5 115c3.85.356 6.422.726 5.715.823-.938.129-1.016.681-.289 2.039 1.633 3.051 23.314 34.594 24.167 35.16.433.287.955 2.987 1.162 6 .206 3.013.458-5.885.56-19.772L210 114l-19.25.177c-13.409.123-17.126.372-12.25.823" fill="#212121" fill-rule="evenodd"/><path fill-opacity=".487" d="M158.5 6.484c-.55.179-4.825 1.539-9.5 3.021-4.675 1.483-13.269 5.159-19.098 8.169C98.921 33.673 77.6 59.012 70.883 87.812l-2.089 8.958-9.38.411c-8.61.376-9.752.672-13.914 3.606l-4.534 3.196.606-2.742c1.202-5.442 3.684-12.787 5.064-14.991.776-1.237 1.123-2.25.771-2.25-1.596 0-10.727 7.597-16.524 13.748-10.787 11.445-17.219 22.479-21.286 36.515-5.035 17.375-4.174 32.764 2.818 50.375 4.892 12.32 9.166 18.867 18.585 28.464 16.475 16.786 38.402 28.237 65.312 34.108 8.948 1.952 13.171 2.227 34.688 2.257 21.498.029 25.851-.241 35.524-2.204 45.572-9.247 74.85-33.237 82.058-67.237 3.891-18.352-1.049-37.42-13.738-53.026-4.876-5.998-5.332-7.01-5.903-13.098-.751-8.003-2.702-10.993-9.387-14.389-4.07-2.068-6.377-2.513-13.016-2.513-7.626 0-8.454-.224-15.054-4.068-26.038-15.168-38.438-33.369-38.472-56.472-.014-9.451 1.967-17.851 5.937-25.182 2.595-4.791 2.505-5.757-.449-4.794m-53.389 99.193c-4.736 4.773-7.579 7.836-6.318 6.807 1.867-1.524 2.179-1.575 1.681-.277-.559 1.457 5.781 11.761 7.77 12.628a.71.71 0 01.325 1.053c-.244.394 2.74-.35 6.63-1.655 28.501-9.559 59.141 4.563 65.461 30.171 1.416 5.738 1.482 7.701.45 13.302-.666 3.614-2.138 8.388-3.271 10.609-2.706 5.304-11.224 14.24-16.548 17.36l-4.237 2.483 3.955 5.354c3.823 5.176 3.881 5.368 1.723 5.785-1.228.237 3.168.494 9.768.571 6.6.077 17.738.433 24.75.79l12.75.651V113H171.135l-8.635-8-8.635-8h-40.143l-8.611 8.677m22.389 32.924c-4.812 1.187-9.584 3.772-8.296 4.493.725.406 6.932 9.101 13.794 19.322 6.861 10.221 13.156 18.6 13.988 18.619.92.022.533.596-.986 1.465-3.719 2.126-1.498 1.798 2.79-.412 17.913-9.234 17.251-32.113-1.189-41.039-4.376-2.118-15.8-3.51-20.101-2.448" fill="#212121" fill-rule="evenodd"/><path fill-opacity=".626" d="M96.078 88.956l-8.422 7.859-18.078.364c-14.331.288-18.7.702-21.078 1.998-4.644 2.531-8.277 6.047-9.441 9.138-1.466 3.896-1.459 103.499.008 107.37 1.516 4.003 4.805 7.289 9.433 9.425 3.785 1.747 8.362 1.846 85 1.846 90.833 0 85.443.429 92.259-7.334L229 215.93v-52.497c0-57.814.083-56.979-6.164-61.744-4.863-3.71-10.37-4.637-27.701-4.665L179.77 97l-8.451-8-8.452-8-29.183.048-29.184.048-8.422 7.86m8.627 16.022l-8.428 7.978-19.389.272-19.388.272-.26 48.756-.259 48.756 76.759-.256 76.76-.256.26-48.75.259-48.75h-39.206l-8.753-8-8.753-8h-41.174l-8.428 7.978m14.407 18.543c-13.1 3.668-24.674 13.041-29.916 24.226-2.265 4.834-2.696 7.111-2.696 14.253 0 7.427.39 9.321 3.087 15 5.141 10.827 14.352 18.561 27.451 23.051 8.871 3.04 23.65 3.061 33.112.048 17.768-5.658 29.59-19.363 30.626-35.506 1.133-17.659-9.402-32.301-28.54-39.668-7.532-2.898-25.125-3.644-33.124-1.404m8.232 14.484c-12.31 2.544-22.333 13.313-22.333 23.995 0 7.64 6.274 17.064 13.976 20.993 11.251 5.74 26.211 4.04 35.395-4.023 10.998-9.657 10.784-24.68-.488-34.329-6.532-5.591-17.883-8.428-26.55-6.636" fill="#212121" fill-rule="evenodd"/></svg>